<?xml version="1.0" encoding="UTF-8"?>
<!DOCTYPE svg PUBLIC "-//W3C//DTD SVG 1.0//EN" "http://www.w3.org/TR/2001/REC-SVG-20010904/DTD/svg10.dtd">
<!-- Creator: CorelDRAW 2018 (64-Bit) -->
<svg xmlns="http://www.w3.org/2000/svg" xml:space="preserve" width="71px" height="82px" version="1.0" style="shape-rendering:geometricPrecision; text-rendering:geometricPrecision; image-rendering:optimizeQuality; fill-rule:evenodd; clip-rule:evenodd"
viewBox="0 0 71 82"
 xmlns:xlink="http://www.w3.org/1999/xlink">
 <defs>
  <style type="text/css">
   <![CDATA[
    .fil0 {fill:#D19D23}
   ]]>
  </style>
 </defs>
 <g id="Слой_x0020_1">
  <metadata id="CorelCorpID_0Corel-Layer"/>
  <g id="Layer_2" data-name="Layer 2">
   <path class="fil0" d="M4.74 66.26c-0.42,-0.27 -0.92,-0.41 -1.42,-0.41 -1.49,0 -2.69,1.21 -2.69,2.69 0,0.93 0.48,1.8 1.27,2.29 11.96,7.44 23.43,11.15 34.61,11.15 11.85,-0.21 23.35,-4.15 32.85,-11.23 0.79,-0.49 1.27,-1.36 1.27,-2.29 0,-1.48 -1.2,-2.68 -2.69,-2.68 -0.59,0 -1.17,0.19 -1.64,0.56 -0.97,0.67 -1.94,1.29 -2.91,1.91l-6.23 -18.82 7.98 -44.94c0.02,-0.15 0.04,-0.3 0.04,-0.45 0,-1.51 -1.22,-2.73 -2.73,-2.73 -1.33,0 -2.47,0.96 -2.69,2.27l-4.16 23.52 -35.83 -4.25c-0.11,-0.01 -0.22,-0.02 -0.32,-0.02 -1.5,0 -2.71,1.21 -2.71,2.71 0,1.37 1.02,2.52 2.38,2.69l2.93 0.35 -2.47 16.31 -8.06 -0.51c-0.06,0 -0.11,-0.01 -0.16,-0.01 -1.49,0 -2.7,1.21 -2.7,2.7 0,1.42 1.11,2.6 2.53,2.69l6.78 0.42 -7.69 19.25c-1.83,-0.89 -3.68,-1.99 -5.54,-3.17zm47.42 -19.22l-5.84 -0.51 2.69 -14.81 5.81 0.67 -2.66 14.65zm-16.4 -1.02l2.21 -15.46 5.61 0.65 -2.63 15 -5.19 -0.19zm-8.25 -16.85l5.24 0.62 -2.26 15.75 -5.37 -0.35 2.39 -16.02zm-3.76 21.34l28.76 1.8 6.23 18.82c-14.08,7.28 -28.22,7.52 -43.49,0.77l8.5 -21.39z"/>
  </g>
 </g>
</svg>
