<?xml version="1.0" encoding="UTF-8"?>
<!DOCTYPE svg PUBLIC "-//W3C//DTD SVG 1.0//EN" "http://www.w3.org/TR/2001/REC-SVG-20010904/DTD/svg10.dtd">
<!-- Creator: CorelDRAW 2018 (64-Bit) -->
<svg xmlns="http://www.w3.org/2000/svg" xml:space="preserve" width="71px" height="80px" version="1.0" style="shape-rendering:geometricPrecision; text-rendering:geometricPrecision; image-rendering:optimizeQuality; fill-rule:evenodd; clip-rule:evenodd"
viewBox="0 0 71 80"
 xmlns:xlink="http://www.w3.org/1999/xlink">
 <defs>
  <style type="text/css">
   <![CDATA[
    .fil0 {fill:#D19D23}
   ]]>
  </style>
 </defs>
 <g id="Слой_x0020_1">
  <metadata id="CorelCorpID_0Corel-Layer"/>
  <g id="_2025609811984">
   <path class="fil0" d="M67.81 71.64l0 -39.04c0,-17.82 -14.5,-32.31 -32.31,-32.31 -17.81,0 -32.31,14.49 -32.31,32.31l0 39.04 -2.69 0 0 8.07 70 0 0 -8.07 -2.69 0zm-61.93 -39.04c0,-16.33 13.29,-29.62 29.62,-29.62 16.33,0 29.62,13.29 29.62,29.62l0 39.04 -59.24 0 0 -39.04zm61.93 44.42l-64.62 0 0 -2.69 64.62 0 0 2.69z"/>
   <path class="fil0" d="M35.5 4.33c-14.68,0 -26.77,11.24 -28.13,25.57l-0.14 0 0 2.7 0 16.15 0 2.69 0 18.85 26.92 0 2.7 0 26.92 0 0 -18.85 0 -2.69 0 -16.15 0 -2.7 -0.14 0c-1.36,-14.33 -13.45,-25.57 -28.13,-25.57zm25.43 25.57l-22.18 0 15.09 -15.09c3.88,4 6.48,9.25 7.09,15.09zm-9.05 -16.93l-16.38 16.38 -16.38 -16.38c4.44,-3.71 10.15,-5.95 16.38,-5.95 6.23,0 11.94,2.24 16.38,5.95zm-34.72 1.84l15.09 15.09 -22.18 0c0.61,-5.84 3.21,-11.09 7.09,-15.09zm-7.24 17.79l24.23 0 0 16.15 -24.23 0 0 -16.15zm0 35l0 -16.16 24.23 0 0 16.16 -24.23 0zm51.16 0l-24.23 0 0 -16.16 24.23 0 0 16.16zm-24.23 -18.85l0 -16.15 24.23 0 0 16.15 -24.23 0z"/>
   <path class="fil0" d="M33.2 24.12c0.26,0.27 0.61,0.4 0.95,0.4 0.35,0 0.69,-0.13 0.96,-0.4l2.69 -2.69c0.52,-0.52 0.52,-1.37 0,-1.9 -0.53,-0.53 -1.38,-0.53 -1.91,0l-2.69 2.69c-0.52,0.53 -0.52,1.38 0,1.9z"/>
   <circle class="fil0" cx="39.54" cy="17.79" r="1.35"/>
   <circle class="fil0" cx="34.15" cy="17.79" r="1.35"/>
   <path class="fil0" d="M14.36 37.03l-2.7 2.69c-0.52,0.53 -0.52,1.38 0,1.91 0.27,0.26 0.61,0.39 0.95,0.39 0.35,0 0.69,-0.13 0.96,-0.39l2.69 -2.7c0.53,-0.52 0.53,-1.37 0,-1.9 -0.53,-0.53 -1.38,-0.53 -1.9,0z"/>
   <circle class="fil0" cx="18" cy="35.29" r="1.35"/>
   <circle class="fil0" cx="12.61" cy="35.29" r="1.35"/>
   <path class="fil0" d="M27.82 61.26l-2.7 2.69c-0.52,0.53 -0.52,1.38 0,1.91 0.27,0.26 0.61,0.39 0.96,0.39 0.34,0 0.69,-0.13 0.95,-0.39l2.69 -2.7c0.53,-0.52 0.53,-1.37 0,-1.9 -0.53,-0.53 -1.38,-0.53 -1.9,0z"/>
   <circle class="fil0" cx="31.46" cy="59.52" r="1.35"/>
   <circle class="fil0" cx="26.08" cy="59.52" r="1.35"/>
   <path class="fil0" d="M53 66.25c0.35,0 0.69,-0.13 0.95,-0.39l2.69 -2.7c0.53,-0.52 0.53,-1.37 0,-1.9 -0.52,-0.53 -1.37,-0.53 -1.9,0l-2.69 2.69c-0.53,0.53 -0.53,1.38 0,1.91 0.26,0.26 0.61,0.39 0.95,0.39z"/>
   <circle class="fil0" cx="58.39" cy="59.52" r="1.35"/>
   <circle class="fil0" cx="53" cy="59.52" r="1.35"/>
   <path class="fil0" d="M54.74 37.03l-2.69 2.69c-0.53,0.53 -0.53,1.38 0,1.91 0.26,0.26 0.61,0.39 0.95,0.39 0.35,0 0.69,-0.13 0.95,-0.39l2.69 -2.7c0.53,-0.52 0.53,-1.37 0,-1.9 -0.52,-0.53 -1.37,-0.53 -1.9,0z"/>
   <circle class="fil0" cx="58.39" cy="35.29" r="1.35"/>
   <circle class="fil0" cx="53" cy="35.29" r="1.35"/>
  </g>
  <g id="_2025609812496">
  </g>
  <g id="_2025609811088">
  </g>
  <g id="_2025609809712">
  </g>
  <g id="_2025609810352">
  </g>
  <g id="_2025609810320">
  </g>
  <g id="_2025609808304">
  </g>
  <g id="_2025609808144">
  </g>
  <g id="_2025609808368">
  </g>
  <g id="_2025609807536">
  </g>
  <g id="_2025609805552">
  </g>
  <g id="_2025609806704">
  </g>
  <g id="_2025609807088">
  </g>
  <g id="_2025609804976">
  </g>
  <g id="_2025609803312">
  </g>
  <g id="_2025609805008">
  </g>
 </g>
</svg>
