<?xml version="1.0" encoding="UTF-8"?>
<!DOCTYPE svg PUBLIC "-//W3C//DTD SVG 1.0//EN" "http://www.w3.org/TR/2001/REC-SVG-20010904/DTD/svg10.dtd">
<!-- Creator: CorelDRAW 2018 (64-Bit) -->
<svg xmlns="http://www.w3.org/2000/svg" xml:space="preserve" width="71px" height="70px" version="1.0" style="shape-rendering:geometricPrecision; text-rendering:geometricPrecision; image-rendering:optimizeQuality; fill-rule:evenodd; clip-rule:evenodd"
viewBox="0 0 71 70"
 xmlns:xlink="http://www.w3.org/1999/xlink">
 <defs>
  <style type="text/css">
   <![CDATA[
    .fil0 {fill:#D19D23}
   ]]>
  </style>
 </defs>
 <g id="Слой_x0020_1">
  <metadata id="CorelCorpID_0Corel-Layer"/>
  <g id="_2025601684576">
   <g>
    <path class="fil0" d="M70.5 41.57c0,-1.76 -0.7,-3.39 -1.9,-4.6 1.37,-1.49 2.06,-3.49 1.87,-5.57 -0.34,-3.7 -3.68,-6.61 -7.61,-6.61l-18.01 0c0.89,-2.71 2.32,-7.68 2.32,-11.67 0,-6.32 -5.38,-11.66 -8.75,-11.66 -3.03,0 -5.2,1.7 -5.29,1.77 -0.35,0.28 -0.55,0.7 -0.55,1.14l0 9.89 -8.4 18.21 -0.35 0.17 0 -0.56c0,-0.8 -0.65,-1.45 -1.45,-1.45l-14.59 0c-4.02,0 -7.29,3.27 -7.29,7.29l0 23.33c0,4.02 3.27,7.29 7.29,7.29l8.75 0c3.16,0 5.85,-2.01 6.87,-4.82 2.42,1.25 5.69,1.91 7.72,1.91l26.77 0c3.18,0 5.95,-2.15 6.61,-5.1 0.33,-1.52 0.14,-3.05 -0.53,-4.38 2.15,-1.08 3.6,-3.3 3.6,-5.83 0,-1.04 -0.23,-2.02 -0.68,-2.92 2.15,-1.09 3.6,-3.3 3.6,-5.83zm-49.58 19.68c0,2.41 -1.97,4.38 -4.38,4.38l-8.75 0c-2.41,0 -4.37,-1.97 -4.37,-4.38l0 -23.33c0,-2.42 1.96,-4.38 4.37,-4.38l0 0.02 13.12 0 0 1.45c0,0.01 0.01,0.02 0.01,0.03l0 26.21zm43.43 -16.08c-0.57,0.06 -1.04,0.44 -1.22,0.98 -0.18,0.54 -0.03,1.14 0.38,1.52 0.75,0.71 1.15,1.65 1.15,2.65 0,1.84 -1.38,3.39 -3.23,3.59 -0.56,0.07 -1.04,0.45 -1.21,0.99 -0.18,0.54 -0.04,1.13 0.38,1.52 0.96,0.91 1.35,2.18 1.06,3.48 -0.36,1.63 -1.94,2.81 -3.76,2.81l-26.77 0c-2.17,0 -5.66,-0.94 -7.3,-2.15l0 -24.65 2.11 -1.05c0.29,-0.15 0.53,-0.39 0.67,-0.69l8.75 -18.96c0.08,-0.19 0.13,-0.4 0.13,-0.61l0 -9.42c0.61,-0.33 1.66,-0.79 2.92,-0.79 1.6,0 5.83,3.97 5.83,8.75 0,5.13 -2.79,12.53 -2.82,12.61 -0.17,0.44 -0.11,0.95 0.16,1.34 0.28,0.39 0.72,0.63 1.21,0.63l20.07 0c2.43,0 4.49,1.74 4.7,3.96 0.15,1.66 -0.64,3.24 -2.08,4.13 -0.44,0.27 -0.71,0.77 -0.69,1.3 0.02,0.52 0.32,0.99 0.79,1.24 1.23,0.63 2,1.86 2,3.22 0,1.84 -1.39,3.39 -3.23,3.6z"/>
   </g>
  </g>
  <g id="_2025601684352">
  </g>
  <g id="_2025601683520">
  </g>
  <g id="_2025601683104">
  </g>
  <g id="_2025601683232">
  </g>
  <g id="_2025601682720">
  </g>
  <g id="_2025601680960">
  </g>
  <g id="_2025601681408">
  </g>
  <g id="_2025601679584">
  </g>
  <g id="_2025601681088">
  </g>
  <g id="_2025601678400">
  </g>
  <g id="_2025601678592">
  </g>
  <g id="_2025601679424">
  </g>
  <g id="_2025601677376">
  </g>
  <g id="_2025601677088">
  </g>
  <g id="_2025601676672">
  </g>
 </g>
</svg>
