<?xml version="1.0" encoding="UTF-8"?>
<!DOCTYPE svg PUBLIC "-//W3C//DTD SVG 1.0//EN" "http://www.w3.org/TR/2001/REC-SVG-20010904/DTD/svg10.dtd">
<!-- Creator: CorelDRAW 2018 (64-Bit) -->
<svg xmlns="http://www.w3.org/2000/svg" xml:space="preserve" width="40px" height="36px" version="1.0" style="shape-rendering:geometricPrecision; text-rendering:geometricPrecision; image-rendering:optimizeQuality; fill-rule:evenodd; clip-rule:evenodd"
viewBox="0 0 40 36"
 xmlns:xlink="http://www.w3.org/1999/xlink"
 enable-background="new 0 0 52 52">
 <defs>
  <style type="text/css">
   <![CDATA[
    .fil0 {fill:#D19D23}
   ]]>
  </style>
 </defs>
 <g id="Слой_x0020_1">
  <metadata id="CorelCorpID_0Corel-Layer"/>
  <g id="_2378365417600">
   <path class="fil0" d="M39.58 24.49c-0.23,-0.91 -0.91,-1.67 -1.75,-2.05 -0.38,-0.15 -0.76,-0.23 -1.14,-0.23l0 -20.34c0,-0.76 -0.68,-1.37 -1.52,-1.37l-25.13 0c-0.83,0 -1.52,0.61 -1.52,1.37l0 20.5 -1.51 0.22 -6 0 0 1.52 6 0 0 9.87 -6 0 0 1.52 22.24 0c1.9,0 3.8,-0.53 5.47,-1.52l9.49 -5.92c1.21,-0.68 1.75,-2.2 1.37,-3.57zm-29.54 -22.47l25.13 0 0 20.5c0,0 0,0 -0.07,0l-1.67 0.83 0 -19.89 -9.95 0 0 19.21 -1.59 0 0 -19.21 -9.95 0 0 18.45c-0.23,0.08 -0.46,0.08 -0.68,0.15l-1.14 0.15 0 -20.19 -0.08 0zm17.92 23.23c-0.3,-1.44 -1.52,-2.51 -2.96,-2.58l0.07 0 0 -8.73 5.47 -2.81 -0.68 -1.37 -4.79 2.43 0 -0.98 5.24 -2.66 -0.68 -1.37 -4.56 2.36 0 -4.56 6.99 0 0 19.13 -4.02 1.98c0,-0.31 -0.08,-0.61 -0.08,-0.84zm-7.52 -2.58l-1.9 0 -0.91 -0.38c-1.36,-0.46 -2.73,-0.68 -4.17,-0.61l0 -16.7 6.98 0 0 17.69zm17.01 4.1l-9.49 5.92c-1.37,0.84 -3.04,1.29 -4.63,1.29l-14.81 0 0 -10.02 2.89 -0.38 0.07 0c1.83,-0.53 3.72,-0.45 5.55,0.15l1.21 0.46 6.53 0c0.84,0 1.52,0.61 1.67,1.36 0.08,0.54 0,0.99 -0.38,1.37 -0.07,0.15 -0.23,0.23 -0.38,0.3l-0.38 0.16c-0.15,0.07 -0.38,0.07 -0.53,0.07l-6.83 0 0 1.52 6.83 0c0.61,0 1.14,-0.15 1.67,-0.45l9.34 -4.64c0.46,-0.22 0.99,-0.22 1.44,0 0.46,0.23 0.76,0.61 0.91,1.07 0.23,0.68 -0.07,1.44 -0.68,1.82zm-31.58 3.19c0,-1.29 -1.07,-2.36 -2.36,-2.36 -1.29,0 -2.35,1.07 -2.35,2.36 0,1.29 1.06,2.35 2.35,2.35 1.29,0 2.36,-1.06 2.36,-2.35zm-3.19 0c0,-0.46 0.38,-0.84 0.83,-0.84 0.46,0 0.84,0.38 0.84,0.84 0,0.45 -0.38,0.83 -0.84,0.83 -0.45,0 -0.83,-0.38 -0.83,-0.83z"/>
  </g>
 </g>
</svg>
