<?xml version="1.0" encoding="UTF-8"?>
<!DOCTYPE svg PUBLIC "-//W3C//DTD SVG 1.0//EN" "http://www.w3.org/TR/2001/REC-SVG-20010904/DTD/svg10.dtd">
<!-- Creator: CorelDRAW 2018 (64-Bit) -->
<svg xmlns="http://www.w3.org/2000/svg" xml:space="preserve" width="36px" height="37px" version="1.0" style="shape-rendering:geometricPrecision; text-rendering:geometricPrecision; image-rendering:optimizeQuality; fill-rule:evenodd; clip-rule:evenodd"
viewBox="0 0 36 37"
 xmlns:xlink="http://www.w3.org/1999/xlink"
 enable-background="new 0 0 52 52">
 <defs>
  <style type="text/css">
   <![CDATA[
    .fil0 {fill:#D19D23}
   ]]>
  </style>
 </defs>
 <g id="Слой_x0020_1">
  <metadata id="CorelCorpID_0Corel-Layer"/>
  <g id="_2378370415952">
   <path class="fil0" d="M28.02 5.83l-9.95 -5.43 -9.96 5.64 0 10.86 9.96 5.85 9.95 -5.78 0 -11.14zm-9.95 -3.83l3.06 1.67 -7.94 4.46 -2.99 -1.67 7.87 -4.46zm-0.7 18.8l-7.87 -4.6 0 -8.56 7.87 4.39 0 8.77zm0.7 -9.96l-3.41 -1.88 7.93 -4.45 3.34 1.81 -7.86 4.52zm8.56 5.36l-7.87 4.6 0 -8.77 7.87 -4.6 0 8.77zm8.91 6.48c-0.07,0.97 -0.35,1.39 -0.56,1.74l-0.06 0.07c-0.21,0.42 -4.67,8.63 -4.95,9.19 -0.21,0.42 -0.28,0.76 -0.28,1.53l0 1.39 -1.39 0 0 -1.39c0,-0.84 0.07,-1.46 0.35,-2.16 0.28,-0.63 4.73,-8.84 5.01,-9.26l0.07 -0.07c0.21,-0.28 0.35,-0.49 0.35,-1.11 0.07,-0.84 0.07,-10.72 0,-11.63 0,-0.21 -0.07,-0.83 -1.11,-0.76 -0.63,0 -0.98,0.55 -0.98,1.11 0,0.77 0,6.41 0,8.08 0.42,0.41 0.98,1.32 0.28,2.85 -0.49,0.97 -4.18,4.73 -4.87,5.43l-0.98 -0.97c2.09,-2.09 4.39,-4.53 4.6,-5.09 0.41,-0.9 0.14,-1.18 -0.14,-1.46 -0.14,-0.14 -0.91,-0.21 -1.33,0.21 -0.34,0.35 -0.97,1.05 -1.74,1.88 -1.18,1.32 -2.02,2.23 -2.43,2.58 -0.28,0.21 -0.49,0.34 -0.63,0.48 -0.28,0.21 -0.63,0.42 -1.46,1.26 -1.26,1.32 -1.74,3.41 -1.74,4.45 0,1.32 0,5.5 0,5.5l-1.39 0c0,0 0,-4.24 0,-5.57 0,-1.53 0.69,-3.9 2.08,-5.43 0.98,-1.04 1.4,-1.25 1.75,-1.46 0.13,-0.07 0.27,-0.21 0.48,-0.35 0.35,-0.28 1.39,-1.46 2.3,-2.43 0.7,-0.84 1.39,-1.61 1.81,-1.95 0.56,-0.56 1.32,-0.7 2.02,-0.63 0,-2.16 0,-6.75 0,-7.45 0,-1.39 0.97,-2.44 2.3,-2.51 1.39,0 2.36,0.77 2.5,2.02 0.21,1.05 0.21,11.07 0.14,11.91zm-19.63 8.35c0,1.32 0,5.57 0,5.57l-1.39 0c0,0 0,-4.25 0,-5.5 0,-1.04 -0.49,-3.13 -1.74,-4.45 -0.84,-0.91 -1.19,-1.05 -1.47,-1.26 -0.2,-0.14 -0.41,-0.21 -0.62,-0.48 -0.42,-0.35 -1.26,-1.26 -2.44,-2.58 -0.7,-0.77 -1.39,-1.53 -1.74,-1.88 -0.42,-0.42 -1.11,-0.28 -1.32,-0.14 -0.28,0.21 -0.63,0.49 -0.14,1.39 0.28,0.49 2.57,3 4.59,5.09l-0.97 0.97c-0.77,-0.77 -4.39,-4.46 -4.87,-5.43 -0.77,-1.53 -0.14,-2.44 0.27,-2.85 0,-1.67 0,-7.32 0,-8.08 0,-0.49 -0.27,-1.11 -0.97,-1.11l-0.07 0c-0.91,0 -0.98,0.62 -1.05,0.76 -0.07,0.91 -0.07,10.86 0,11.63 0.07,0.62 0.14,0.83 0.35,1.11l0.07 0.07c0.28,0.42 4.81,8.63 5.09,9.26 0.27,0.7 0.34,1.25 0.34,2.16l0 1.32 -1.39 0 0 -1.39c0,-0.77 -0.07,-1.11 -0.28,-1.53 -0.21,-0.56 -4.66,-8.77 -4.87,-9.12l-0.07 -0.07c-0.28,-0.42 -0.49,-0.84 -0.56,-1.81 -0.07,-0.84 -0.14,-10.86 0,-11.84 0.14,-1.25 1.05,-2.02 2.44,-2.02l0.07 0c1.32,0 2.3,1.12 2.3,2.51 0,0.7 0,5.29 0,7.45 0.69,-0.07 1.46,0.07 2.02,0.63 0.34,0.34 1.04,1.11 1.8,1.95 0.84,0.97 1.95,2.15 2.3,2.43 0.21,0.14 0.35,0.28 0.49,0.35 0.35,0.21 0.77,0.49 1.74,1.46 1.39,1.53 2.09,3.9 2.09,5.43z"/>
  </g>
 </g>
</svg>
