<?xml version="1.0" encoding="UTF-8"?>
<!DOCTYPE svg PUBLIC "-//W3C//DTD SVG 1.0//EN" "http://www.w3.org/TR/2001/REC-SVG-20010904/DTD/svg10.dtd">
<!-- Creator: CorelDRAW 2018 (64-Bit) -->
<svg xmlns="http://www.w3.org/2000/svg" xml:space="preserve" width="52px" height="70px" version="1.0" style="shape-rendering:geometricPrecision; text-rendering:geometricPrecision; image-rendering:optimizeQuality; fill-rule:evenodd; clip-rule:evenodd"
viewBox="0 0 52 70"
 xmlns:xlink="http://www.w3.org/1999/xlink">
 <defs>
  <style type="text/css">
   <![CDATA[
    .fil0 {fill:#D19D23}
   ]]>
  </style>
 </defs>
 <g id="Слой_x0020_1">
  <metadata id="CorelCorpID_0Corel-Layer"/>
  <path class="fil0" d="M51.17 24.52c-0.13,-0.25 -1.79,-22.13 -25.07,-22.13 -23.15,0 -24.93,21.88 -24.93,22.26l0 43.9 15.65 0 18.57 0 15.65 0 0.13 -44.03zm-2.68 -0.38l-13.23 0c-0.25,-1.91 -1.14,-3.69 -2.54,-5.09 -1.4,-1.52 -3.31,-2.41 -5.35,-2.67l0 -11.45c18.07,0.77 20.74,16.16 21.12,19.21zm-13.1 2.55l13.1 0 0 17.68 -13.1 0 0 -17.68zm-10.56 -21.76l0 11.45c-2.04,0.26 -3.82,1.15 -5.34,2.67 -1.4,1.4 -2.29,3.18 -2.55,5.09l-13.23 0c0.38,-3.3 3.18,-18.44 21.12,-19.21zm-8.01 39.44l-13.11 0 0 -17.68 13.11 0 0 17.68zm-13.11 21.63l0 -19.08 13.11 0 0 19.08 -13.11 0zm15.65 0l0 -40.46c0,-1.78 0.64,-3.43 1.91,-4.7 1.27,-1.28 2.92,-2.04 4.83,-2.04 1.91,0 3.57,0.76 4.84,2.04 1.27,1.27 1.91,2.92 1.91,4.7l0 40.46 -13.49 0zm16.03 0l0 -19.08 13.1 0 0 19.08 -13.1 0z"/>
 </g>
</svg>
