<svg width="158" height="61" viewBox="0 0 158 61" fill="none" xmlns="http://www.w3.org/2000/svg">
<path d="M51.7778 13.6245C49.9454 12.5779 47.282 12.0527 43.673 12.0527C37.767 12.0527 32.6403 13.6827 31.7032 14.0475C31.3344 14.2079 31.0338 14.4155 31.0338 14.9407C31.0338 15.0429 31.0595 15.1704 31.0756 15.2577C31.0891 15.3346 32.0173 19.4587 32.0173 19.4587C32.072 19.7724 32.2812 19.9328 32.5953 19.9328C32.7497 19.9328 32.8521 19.9328 33.0111 19.8817C34.0551 19.5641 38.242 18.4122 41.372 18.4122C42.8402 18.4122 44.0464 18.5616 44.6668 18.9335C45.4534 19.3526 45.6677 20.0894 45.6677 21.3474V22.2956L36.8794 23.6636C33.6901 24.1377 29.144 25.2897 29.144 31.8574C29.144 39.9497 35.5181 41.0001 42.2673 41.0001C45.4534 41.0001 47.8548 40.7847 50.0548 40.3183C53.5549 39.4723 55.3848 38.896 55.3848 34.75V20.4619C55.3842 17.3585 54.335 15.0429 51.7778 13.6245ZM45.8177 34.6911C45.8177 34.6911 44.0959 35.1141 42.3697 35.1141C40.7998 35.1141 38.5528 34.6432 38.5528 31.752C38.5528 28.9694 39.9135 28.5464 41.6346 28.2838L45.8177 27.6021V34.6911Z" fill="white"/>
<path d="M87.1249 12.052C77.0873 12.052 73.479 15.8371 73.479 26.7631C73.479 37.6372 78.4454 41 88.6433 41C93.5543 41 98.1679 39.359 98.6281 39.1585C99.0806 38.9612 99.302 38.6883 99.302 38.1631C99.302 38.057 99.2692 37.8934 99.2486 37.7912C99.2338 37.6961 98.3977 34.1406 98.3977 34.1406C98.2465 33.561 97.8841 33.4659 97.5166 33.4659L97.3679 33.4841C96.5337 33.6956 93.5536 34.691 90.412 34.691C88.3787 34.691 86.8076 34.4866 85.7089 34.0642C83.9331 33.4336 83.2025 32.1717 83.2025 30.3334H99.0407C100.349 30.3334 100.558 29.4363 100.558 28.6045V26.0813C100.558 21.0343 99.777 17.4677 97.523 15.1522C95.4884 13.0481 92.1434 12.052 87.1249 12.052ZM90.9906 24.7644H83.2032C83.2032 23.3421 83.2032 22.2955 83.3602 21.2419C83.6216 19.4043 84.5085 18.3539 87.3302 18.3539C89.2148 18.3539 90.4133 19.1417 90.831 21.5556C90.9385 22.2962 91.0441 22.9779 91.0441 23.9223C91.0441 24.1849 91.0441 24.5025 90.9906 24.7644Z" fill="white"/>
<path d="M19.5456 26.0263L27.7688 13.4051C27.7688 13.354 27.8196 13.2958 27.8196 13.1969C27.8196 12.9821 27.7173 12.6645 27.3491 12.6645H18.2325H17.968C17.7112 12.6645 17.4505 12.7228 17.2439 13.1387L9.73062 25.8659V0.783934C9.73062 0.316937 9.36117 0 8.84175 0H0.892092C0.366878 0 0 0.316937 0 0.783934V39.5304C0 40.0007 0.366878 40.3183 0.892092 40.3183H8.84175C9.36117 40.3183 9.73062 40.0007 9.73062 39.5304V26.5988L16.6286 39.9496C16.7818 40.2633 17.0991 40.3183 17.3604 40.3183H27.4495C27.707 40.3183 27.9175 40.0589 27.9175 39.7892C27.9175 39.7381 27.9175 39.687 27.8666 39.5777L19.5456 26.0263Z" fill="white"/>
<path d="M68.6324 0H60.5308C60.0095 0 59.6426 0.316937 59.6426 0.783934V39.5304C59.6426 40.0007 60.0095 40.3183 60.5308 40.3183C60.5308 40.3183 61.9848 40.3183 62.5943 40.3183C63.2058 40.3183 65.3968 40.304 67.0123 39.5595C68.6221 38.8338 69.1112 37.7692 69.2882 36.9561C69.48 36.0952 69.5167 35.4827 69.5167 34.7719V0.783934C69.5174 0.316937 69.1556 0 68.6324 0Z" fill="white"/>
<path d="M154.389 13.6245C152.559 12.5779 149.898 12.0527 146.288 12.0527C140.382 12.0527 135.258 13.6827 134.318 14.0475C133.95 14.2079 133.647 14.4155 133.647 14.9407C133.647 15.0429 133.678 15.1704 133.689 15.2577C133.706 15.3346 134.629 19.4587 134.629 19.4587C134.682 19.7724 134.894 19.9328 135.205 19.9328C135.361 19.9328 135.465 19.9328 135.622 19.8817C136.667 19.5641 140.854 18.4122 143.989 18.4122C145.452 18.4122 146.651 18.5616 147.281 18.9335C148.065 19.3526 148.276 20.0894 148.276 21.3474V22.2956L139.491 23.6636C136.305 24.1377 131.753 25.2897 131.753 31.8574C131.753 39.9497 138.129 41.0001 144.877 41.0001C148.065 41.0001 150.468 40.7847 152.668 40.3183C156.166 39.4723 158 38.896 158 34.75V20.4619C158 17.3585 156.954 15.0429 154.389 13.6245ZM148.431 34.6911C148.431 34.6911 146.705 35.1141 144.981 35.1141C143.414 35.1141 141.162 34.6432 141.162 31.752C141.162 28.9694 142.523 28.5464 144.246 28.2838L148.431 27.6021V34.6911Z" fill="white"/>
<path d="M129.563 12.6646H121.449C121.064 12.6646 120.732 12.942 120.66 13.3211C120.653 13.3469 116.723 32.1711 116.66 32.532H115.587C115.523 32.1711 111.593 13.3469 111.589 13.3211C111.514 12.942 111.181 12.6646 110.802 12.6646H102.685C102.239 12.6646 101.869 13.0365 101.869 13.4854C101.869 13.5403 101.881 13.5947 101.89 13.6458C101.928 13.8249 107.632 35.5623 108.148 37.4768C108.618 39.2349 109.975 40.3066 111.803 40.3066H120.444C122.269 40.3066 123.628 39.2349 124.105 37.4768C124.607 35.5623 130.321 13.8243 130.361 13.6458C130.365 13.5947 130.378 13.5403 130.378 13.4854C130.378 13.0371 130.007 12.6646 129.563 12.6646Z" fill="white"/>
<path d="M43.0819 6.94668C43.0072 6.88135 42.9023 6.84448 42.7916 6.84448C42.6828 6.84448 42.5773 6.8807 42.4975 6.94668C42.4363 6.99066 41.8635 7.4389 41.2681 7.86968C40.6875 8.28881 40.1578 8.59152 40.0761 8.67948C40.0342 8.71959 40.0124 8.77068 40.0201 8.83278C40.0207 8.87676 40.0349 8.9201 40.0626 8.95308C40.0922 9.00806 40.3683 9.27067 40.9032 9.5585C41.5172 9.89743 42.3945 10.2072 42.5354 10.2583C42.6133 10.2875 42.697 10.2984 42.7916 10.2984C42.8817 10.2984 42.968 10.2875 43.0414 10.2583C43.1875 10.2072 44.0602 9.89743 44.6646 9.56173C45.2098 9.27002 45.4878 9.00742 45.5232 8.95244C45.5458 8.91945 45.5593 8.87611 45.5651 8.83213C45.5677 8.77392 45.5464 8.71506 45.5072 8.67884C45.4183 8.58764 44.8931 8.28816 44.3106 7.86903C43.7159 7.4389 43.1456 6.99066 43.0819 6.94668Z" fill="white"/>
<path d="M41.4443 3.43133C41.9161 4.00375 42.4278 4.55096 42.516 4.62728C42.5913 4.68937 42.6846 4.74371 42.7915 4.74371C42.897 4.74371 42.9968 4.68873 43.0682 4.62728C43.1532 4.55031 43.6694 4.00375 44.136 3.43844C44.5956 2.87701 44.9644 2.34792 44.9959 2.29294C45.0223 2.24572 45.0378 2.17975 45.0352 2.11442C45.0352 2.04133 45.0107 1.97212 44.9753 1.91391C44.9342 1.8557 44.4849 1.36671 43.9655 0.896479C43.4821 0.451473 42.9627 0.061447 42.9466 0.0536852C42.9022 0.0181107 42.8487 0 42.7915 0C42.729 0 42.6711 0.0181107 42.6293 0.0549789C42.6248 0.0620938 42.1021 0.452767 41.6168 0.897772C41.0987 1.368 40.6468 1.85699 40.6069 1.9152C40.5689 1.97342 40.5458 2.04651 40.5458 2.11572C40.5432 2.18169 40.5541 2.2399 40.5857 2.29424C40.6121 2.34857 40.9815 2.87701 41.4443 3.43133Z" fill="white"/>
<path d="M38.1353 6.85618C38.4108 7.35164 38.7622 7.79729 38.8472 7.86262C38.9019 7.90983 38.974 7.92795 39.0467 7.93571C39.1194 7.93959 39.1857 7.9176 39.2437 7.87749C39.2958 7.84451 39.933 7.39239 40.5187 6.92927C41.0446 6.50626 41.4784 6.10847 41.5376 6.03538C41.5794 5.9914 41.6045 5.92219 41.6168 5.85686C41.6232 5.82775 41.6232 5.80964 41.6232 5.78765C41.6232 5.68546 41.5827 5.59814 41.5196 5.52505C41.4604 5.43773 39.7142 3.29679 39.6537 3.23857C39.6138 3.19459 39.561 3.18359 39.503 3.18359C39.4483 3.18747 39.3988 3.20947 39.3544 3.24569C39.2932 3.29679 38.7268 3.96041 38.2885 4.55095C37.9615 4.99596 37.7414 5.39374 37.706 5.44419C37.668 5.5134 37.6436 5.60848 37.6436 5.69257C37.6436 5.73655 37.6493 5.76889 37.6545 5.809C37.6777 5.90408 37.863 6.38207 38.1353 6.85618Z" fill="white"/>
<path d="M43.9604 5.787C43.9604 5.809 43.9604 5.82711 43.965 5.85621C43.9765 5.92219 44.0055 5.9914 44.0467 6.03473C44.0956 6.10782 44.5359 6.50561 45.0675 6.92862C45.6468 7.39174 46.2866 7.84386 46.3374 7.87685C46.3953 7.91695 46.461 7.93894 46.5344 7.93506C46.6097 7.92794 46.6805 7.90983 46.7346 7.86197C46.8137 7.796 47.1664 7.35099 47.4477 6.85553C47.7155 6.38142 47.9047 5.90343 47.9285 5.809C47.9337 5.76889 47.9414 5.73591 47.9414 5.69257C47.9414 5.60848 47.9176 5.5134 47.8712 5.44419C47.8403 5.3931 47.6208 4.99596 47.2881 4.55095C46.8562 3.96041 46.2866 3.29679 46.2248 3.24569C46.1868 3.20947 46.1334 3.18747 46.0774 3.18359C46.0182 3.18359 45.9628 3.19459 45.9255 3.23857C45.8618 3.29679 44.1175 5.43773 44.0583 5.52505C44.0023 5.59749 43.9604 5.68481 43.9604 5.787Z" fill="white"/>
<path d="M5.43625 51.3616H7.48079L3.85926 55.5854L7.78985 60.1262H5.65022L1.86227 55.6805V60.1262H0V51.3616H1.86227V55.6171L5.43625 51.3616Z" fill="white"/>
<path d="M14.7238 60.1262L14.3514 58.9058H14.288C13.8653 59.4394 13.4401 59.8039 13.0121 59.9994C12.5842 60.1896 12.0348 60.2847 11.3638 60.2847C10.5027 60.2847 9.8291 60.0522 9.34306 59.5873C8.86231 59.1224 8.62193 58.4647 8.62193 57.6141C8.62193 56.7107 8.9574 56.0292 9.62835 55.5696C10.2993 55.1099 11.3216 54.859 12.6952 54.8167L14.2087 54.7692V54.3016C14.2087 53.7416 14.0767 53.3243 13.8125 53.0495C13.5536 52.7695 13.1495 52.6295 12.6001 52.6295C12.151 52.6295 11.7204 52.6956 11.3084 52.8277C10.8963 52.9597 10.5 53.1156 10.1197 53.2952L9.5174 51.9639C9.99288 51.7156 10.5133 51.528 11.0785 51.4012C11.6438 51.2692 12.1774 51.2031 12.6793 51.2031C13.794 51.2031 14.634 51.4461 15.1993 51.9322C15.7699 52.4182 16.0552 53.1816 16.0552 54.2224V60.1262H14.7238ZM11.9502 58.8583C12.6265 58.8583 13.168 58.6707 13.5748 58.2956C13.9869 57.9152 14.1929 57.3843 14.1929 56.7028V55.942L13.0676 55.9896C12.1906 56.0213 11.5514 56.1692 11.1499 56.4333C10.7536 56.6922 10.5555 57.0911 10.5555 57.6299C10.5555 58.0209 10.6717 58.3247 10.9042 58.5413C11.1367 58.7526 11.4853 58.8583 11.9502 58.8583Z" fill="white"/>
<path d="M20.2948 51.3616V54.5631C20.2948 55.4613 20.7597 55.9103 21.6895 55.9103C22.1386 55.9103 22.5771 55.8496 23.005 55.7281C23.4329 55.6013 23.8926 55.4005 24.3839 55.1258V51.3616H26.2462V60.1262H24.3839V56.4096C23.8714 56.7265 23.3748 56.9616 22.8941 57.1149C22.4186 57.2628 21.8982 57.3367 21.3329 57.3367C20.419 57.3367 19.7058 57.1016 19.1933 56.6315C18.6808 56.156 18.4246 55.493 18.4246 54.6424V51.3616H20.2948Z" fill="white"/>
<path d="M32.7364 60.2847C31.3734 60.2847 30.3062 59.8884 29.5349 59.096C28.7688 58.2983 28.3858 57.202 28.3858 55.8073C28.3858 54.3756 28.7424 53.2503 29.4556 52.4314C30.1688 51.6126 31.1488 51.2031 32.3956 51.2031C33.5526 51.2031 34.4666 51.5544 35.1375 52.2571C35.8085 52.9597 36.1439 53.9265 36.1439 55.1575V56.1639H30.3035C30.33 57.0145 30.5598 57.6696 30.993 58.1292C31.4262 58.5835 32.0364 58.8107 32.8236 58.8107C33.3413 58.8107 33.822 58.7632 34.2658 58.6681C34.7149 58.5677 35.1956 58.4039 35.7081 58.1767V59.6903C35.2538 59.9069 34.7941 60.0601 34.3292 60.15C33.8643 60.2398 33.3334 60.2847 32.7364 60.2847ZM32.3956 52.6137C31.8039 52.6137 31.3285 52.8012 30.9692 53.1763C30.6152 53.5514 30.4039 54.0982 30.3352 54.8167H34.3134C34.3028 54.093 34.1285 53.5462 33.7903 53.1763C33.4522 52.8012 32.9873 52.6137 32.3956 52.6137Z" fill="white"/>
<path d="M41.7942 60.2847C40.4681 60.2847 39.4591 59.899 38.767 59.1277C38.0802 58.3511 37.7368 57.239 37.7368 55.7914C37.7368 54.3175 38.096 53.1843 38.8145 52.3918C39.5383 51.5994 40.5817 51.2031 41.9447 51.2031C42.8693 51.2031 43.7013 51.3748 44.441 51.7182L43.8783 53.216C43.0911 52.9095 42.4413 52.7563 41.9289 52.7563C40.4126 52.7563 39.6545 53.7628 39.6545 55.7756C39.6545 56.7582 39.8421 57.4979 40.2172 57.9945C40.5976 58.4858 41.1523 58.7315 41.8813 58.7315C42.7108 58.7315 43.4953 58.5254 44.2349 58.1133V59.7379C43.9021 59.9334 43.5455 60.0734 43.1651 60.1579C42.79 60.2424 42.333 60.2847 41.7942 60.2847Z" fill="white"/>
<path d="M52.8806 51.3616V52.8197H50.0278V60.1262H48.1576V52.8197H45.3047V51.3616H52.8806Z" fill="white"/>
<path d="M62.1761 53.6043C62.1761 54.6397 61.5712 55.2658 60.3614 55.4824V55.5458C61.0377 55.625 61.5554 55.839 61.9146 56.1877C62.2739 56.5364 62.4535 56.9881 62.4535 57.5428C62.4535 58.3722 62.1365 59.0115 61.5026 59.4605C60.8739 59.9043 59.9573 60.1262 58.7527 60.1262H54.5686V51.3616H58.7369C61.0297 51.3616 62.1761 52.1092 62.1761 53.6043ZM60.5437 57.4318C60.5437 57.0092 60.3799 56.7107 60.0524 56.5364C59.7248 56.3567 59.2335 56.2669 58.5784 56.2669H56.4308V58.7473H58.6259C59.9044 58.7473 60.5437 58.3088 60.5437 57.4318ZM60.3139 53.7628C60.3139 53.4141 60.1765 53.1631 59.9018 53.0099C59.6324 52.8514 59.2282 52.7722 58.6893 52.7722H56.4308V54.8801H58.412C59.0354 54.8801 59.5082 54.8009 59.8305 54.6424C60.1527 54.4786 60.3139 54.1854 60.3139 53.7628Z" fill="white"/>
<path d="M68.2067 60.2847C66.8437 60.2847 65.7765 59.8884 65.0052 59.096C64.2392 58.2983 63.8562 57.202 63.8562 55.8073C63.8562 54.3756 64.2128 53.2503 64.926 52.4314C65.6392 51.6126 66.6192 51.2031 67.866 51.2031C69.023 51.2031 69.9369 51.5544 70.6079 52.2571C71.2788 52.9597 71.6143 53.9265 71.6143 55.1575V56.1639H65.7739C65.8003 57.0145 66.0301 57.6696 66.4633 58.1292C66.8965 58.5835 67.5067 58.8107 68.2939 58.8107C68.8116 58.8107 69.2924 58.7632 69.7362 58.6681C70.1852 58.5677 70.666 58.4039 71.1785 58.1767V59.6903C70.7241 59.9069 70.2645 60.0601 69.7996 60.15C69.3347 60.2398 68.8037 60.2847 68.2067 60.2847ZM67.866 52.6137C67.2743 52.6137 66.7988 52.8012 66.4396 53.1763C66.0856 53.5514 65.8743 54.0982 65.8056 54.8167H69.7837C69.7732 54.093 69.5988 53.5462 69.2607 53.1763C68.9226 52.8012 68.4577 52.6137 67.866 52.6137Z" fill="white"/>
<path d="M75.5924 51.3616V54.8801H79.7211V51.3616H81.5834V60.1262H79.7211V56.3462H75.5924V60.1262H73.7302V51.3616H75.5924Z" fill="white"/>
<path d="M86.1163 51.3616V54.8801H90.245V51.3616H92.1072V60.1262H90.245V56.3462H86.1163V60.1262H84.254V51.3616H86.1163Z" fill="white"/>
<path d="M96.6401 54.8643H98.4152C99.6409 54.8643 100.547 55.0756 101.133 55.4982C101.72 55.9209 102.013 56.5548 102.013 57.4001C102.013 58.3035 101.707 58.985 101.094 59.4447C100.486 59.899 99.5933 60.1262 98.4152 60.1262H94.7778V51.3616H96.6401V54.8643ZM100.167 57.4477C100.167 57.0092 100.003 56.7028 99.6752 56.5284C99.3529 56.3541 98.888 56.2669 98.2805 56.2669H96.6401V58.7473H98.0427C98.7929 58.7473 99.3344 58.6417 99.6673 58.4303C100 58.219 100.167 57.8915 100.167 57.4477ZM105.262 60.1262H103.392V51.3616H105.262V60.1262Z" fill="white"/>
<path d="M111.76 60.2847C110.397 60.2847 109.33 59.8884 108.559 59.096C107.793 58.2983 107.41 57.202 107.41 55.8073C107.41 54.3756 107.766 53.2503 108.479 52.4314C109.193 51.6126 110.173 51.2031 111.419 51.2031C112.576 51.2031 113.49 51.5544 114.161 52.2571C114.832 52.9597 115.168 53.9265 115.168 55.1575V56.1639H109.327C109.354 57.0145 109.584 57.6696 110.017 58.1292C110.45 58.5835 111.06 58.8107 111.847 58.8107C112.365 58.8107 112.846 58.7632 113.29 58.6681C113.739 58.5677 114.219 58.4039 114.732 58.1767V59.6903C114.278 59.9069 113.818 60.0601 113.353 60.15C112.888 60.2398 112.357 60.2847 111.76 60.2847ZM111.419 52.6137C110.828 52.6137 110.352 52.8012 109.993 53.1763C109.639 53.5514 109.428 54.0982 109.359 54.8167H113.337C113.327 54.093 113.152 53.5462 112.814 53.1763C112.476 52.8012 112.011 52.6137 111.419 52.6137Z" fill="white"/>
<path d="M129.273 55.7281C129.273 57.1598 128.906 58.2771 128.172 59.0801C127.438 59.8832 126.415 60.2847 125.105 60.2847C124.286 60.2847 123.562 60.0998 122.934 59.73C122.305 59.3601 121.822 58.8292 121.484 58.1371C121.145 57.445 120.976 56.642 120.976 55.7281C120.976 54.3069 121.341 53.1975 122.07 52.3997C122.799 51.602 123.827 51.2031 125.153 51.2031C126.421 51.2031 127.424 51.6126 128.164 52.4314C128.904 53.245 129.273 54.3439 129.273 55.7281ZM122.894 55.7281C122.894 57.7515 123.642 58.7632 125.137 58.7632C126.616 58.7632 127.356 57.7515 127.356 55.7281C127.356 53.7258 126.611 52.7246 125.121 52.7246C124.339 52.7246 123.771 52.9835 123.417 53.5012C123.069 54.019 122.894 54.7613 122.894 55.7281Z" fill="white"/>
<path d="M136.857 51.3616H138.902L135.28 55.5854L139.211 60.1262H137.071L133.283 55.6805V60.1262H131.421V51.3616H133.283V55.6171L136.857 51.3616Z" fill="white"/>
<path d="M142.523 51.3616V54.8801H146.652V51.3616H148.514V60.1262H146.652V56.3462H142.523V60.1262H140.661V51.3616H142.523Z" fill="white"/>
<path d="M156.669 60.1262L156.296 58.9058H156.233C155.81 59.4394 155.385 59.8039 154.957 59.9994C154.529 60.1896 153.98 60.2847 153.309 60.2847C152.448 60.2847 151.774 60.0522 151.288 59.5873C150.807 59.1224 150.567 58.4647 150.567 57.6141C150.567 56.7107 150.902 56.0292 151.573 55.5696C152.244 55.1099 153.266 54.859 154.64 54.8167L156.154 54.7692V54.3016C156.154 53.7416 156.021 53.3243 155.757 53.0495C155.498 52.7695 155.094 52.6295 154.545 52.6295C154.096 52.6295 153.665 52.6956 153.253 52.8277C152.841 52.9597 152.445 53.1156 152.064 53.2952L151.462 51.9639C151.938 51.7156 152.458 51.528 153.023 51.4012C153.589 51.2692 154.122 51.2031 154.624 51.2031C155.739 51.2031 156.579 51.4461 157.144 51.9322C157.715 52.4182 158 53.1816 158 54.2224V60.1262H156.669ZM153.895 58.8583C154.571 58.8583 155.113 58.6707 155.52 58.2956C155.932 57.9152 156.138 57.3843 156.138 56.7028V55.942L155.012 55.9896C154.135 56.0213 153.496 56.1692 153.095 56.4333C152.698 56.6922 152.5 57.0911 152.5 57.6299C152.5 58.0209 152.617 58.3247 152.849 58.5413C153.081 58.7526 153.43 58.8583 153.895 58.8583Z" fill="white"/>
</svg>
