<svg fill="none" height="61" viewBox="0 0 158 61" width="158" xmlns="http://www.w3.org/2000/svg"><g fill="#285594"><path d="m51.7778 13.6245c-1.8324-1.0466-4.4958-1.5718-8.1048-1.5718-5.906 0-11.0327 1.63-11.9698 1.9948-.3688.1604-.6694.368-.6694.8932 0 .1022.0257.2297.0418.317.0135.0769.9417 4.201.9417 4.201.0547.3137.2639.4741.578.4741.1544 0 .2568 0 .4158-.0511 1.044-.3176 5.2309-1.4695 8.3609-1.4695 1.4682 0 2.6744.1494 3.2948.5213.7866.4191 1.0009 1.1559 1.0009 2.4139v.9482l-8.7883 1.368c-3.1893.4741-7.7354 1.6261-7.7354 8.1938 0 8.0923 6.3741 9.1427 13.1233 9.1427 3.1861 0 5.5875-.2154 7.7875-.6818 3.5001-.846 5.33-1.4223 5.33-5.5683v-14.2881c-.0006-3.1034-1.0498-5.419-3.607-6.8374zm-5.9601 21.0666s-1.7218.423-3.448.423c-1.5699 0-3.8169-.4709-3.8169-3.3621 0-2.7826 1.3607-3.2056 3.0818-3.4682l4.1831-.6817z"/><path d="m87.1249 12.052c-10.0376 0-13.6459 3.7851-13.6459 14.7111 0 10.8741 4.9664 14.2369 15.1643 14.2369 4.911 0 9.5246-1.641 9.9848-1.8415.4525-.1973.6739-.4702.6739-.9954 0-.1061-.0328-.2697-.0534-.3719-.0148-.0951-.8509-3.6506-.8509-3.6506-.1512-.5796-.5136-.6747-.8811-.6747l-.1487.0182c-.8342.2115-3.8143 1.2069-6.9559 1.2069-2.0333 0-3.6044-.2044-4.7031-.6268-1.7758-.6306-2.5064-1.8925-2.5064-3.7308h15.8382c1.3083 0 1.5173-.8971 1.5173-1.7289v-2.5232c0-5.047-.781-8.6136-3.035-10.9291-2.0346-2.1041-5.3796-3.1002-10.3981-3.1002zm3.8657 12.7124h-7.7874c0-1.4223 0-2.4689.157-3.5225.2614-1.8376 1.1483-2.888 3.97-2.888 1.8846 0 3.0831.7878 3.5008 3.2017.1075.7406.2131 1.4223.2131 2.3667 0 .2626 0 .5802-.0535.8421z"/><path d="m19.5456 26.0263 8.2232-12.6212c0-.0511.0508-.1093.0508-.2082 0-.2148-.1023-.5324-.4705-.5324h-9.1166-.2645c-.2568 0-.5175.0583-.7241.4742l-7.51328 12.7272v-25.081966c0-.466997-.36945-.783934-.88887-.783934h-7.949658c-.525214 0-.892092.316937-.892092.783934v38.746466c0 .4703.366878.7879.892092.7879h7.949658c.51942 0 .88887-.3176.88887-.7879v-12.9316l6.89798 13.3508c.1532.3137.4705.3687.7318.3687h10.0891c.2575 0 .468-.2594.468-.5291 0-.0511 0-.1022-.0509-.2115z"/><path d="m68.6324 0h-8.1016c-.5213 0-.8882.316937-.8882.783934v38.746466c0 .4703.3669.7879.8882.7879h2.0635c.6115 0 2.8025-.0143 4.418-.7588 1.6098-.7257 2.0989-1.7903 2.2759-2.6034.1918-.8609.2285-1.4734.2285-2.1842v-33.987966c.0007-.466997-.3611-.783934-.8843-.783934z"/><path d="m154.389 13.6245c-1.83-1.0466-4.491-1.5718-8.101-1.5718-5.906 0-11.03 1.63-11.97 1.9948-.368.1604-.671.368-.671.8932 0 .1022.031.2297.042.317.017.0769.94 4.201.94 4.201.053.3137.265.4741.576.4741.156 0 .26 0 .417-.0511 1.045-.3176 5.232-1.4695 8.367-1.4695 1.463 0 2.662.1494 3.292.5213.784.4191.995 1.1559.995 2.4139v.9482l-8.785 1.368c-3.186.4741-7.738 1.6261-7.738 8.1938 0 8.0923 6.376 9.1427 13.124 9.1427 3.188 0 5.591-.2154 7.791-.6818 3.498-.846 5.332-1.4223 5.332-5.5683v-14.2881c0-3.1034-1.046-5.419-3.611-6.8374zm-5.958 21.0666s-1.726.423-3.45.423c-1.567 0-3.819-.4709-3.819-3.3621 0-2.7826 1.361-3.2056 3.084-3.4682l4.185-.6817z"/><path d="m129.563 12.6646h-8.114c-.385 0-.717.2774-.789.6565-.007.0258-3.937 18.85-4 19.2109h-1.073c-.064-.3609-3.994-19.1851-3.998-19.2109-.075-.3791-.408-.6565-.787-.6565h-8.117c-.446 0-.816.3719-.816.8208 0 .0549.012.1093.021.1604.038.1791 5.742 21.9165 6.258 23.831.47 1.7581 1.827 2.8298 3.655 2.8298h8.641c1.825 0 3.184-1.0717 3.661-2.8298.502-1.9145 6.216-23.6525 6.256-23.831.004-.0511.017-.1055.017-.1604 0-.4483-.371-.8208-.815-.8208z"/><path d="m43.0819 6.94668c-.0747-.06533-.1796-.1022-.2903-.1022-.1088 0-.2143.03622-.2941.1022-.0612.04398-.634.49222-1.2294.923-.5806.41913-1.1103.72184-1.192.8098-.0419.04011-.0637.0912-.056.1533.0006.04398.0148.08732.0425.1203.0296.05498.3057.31759.8406.60542.614.33893 1.4913.6487 1.6322.6998.0779.0292.1616.0401.2562.0401.0901 0 .1764-.0109.2498-.0401.1461-.0511 1.0188-.36087 1.6232-.69657.5452-.29171.8232-.55431.8586-.60929.0226-.03299.0361-.07633.0419-.12031.0026-.05821-.0187-.11707-.0579-.15329-.0889-.0912-.6141-.39068-1.1966-.80981-.5947-.43013-1.165-.87837-1.2287-.92235z"/><path d="m41.4443 3.43133c.4718.57242.9835 1.11963 1.0717 1.19595.0753.06209.1686.11643.2755.11643.1055 0 .2053-.05498.2767-.11643.085-.07697.6012-.62353 1.0678-1.18884.4596-.56143.8284-1.09052.8599-1.1455.0264-.04722.0419-.11319.0393-.17852 0-.07309-.0245-.1423-.0599-.20051-.0411-.05821-.4904-.5472-1.0098-1.017431-.4834-.445006-1.0028-.835032-1.0189-.8427938-.0444-.0355745-.0979-.0536852-.1551-.0536852-.0625 0-.1204.0181107-.1622.0549789-.0045.0071149-.5272.3977881-1.0125.8427931-.5181.470228-.97.959218-1.0099 1.017428-.038.05822-.0611.13131-.0611.20052-.0026.06597.0083.12418.0399.17852.0264.05433.3958.58277.8586 1.13709z"/><path d="m38.1353 6.85618c.2755.49546.6269.94111.7119 1.00644.0547.04721.1268.06533.1995.07309.0727.00388.139-.01811.197-.05822.0521-.03298.6893-.4851 1.275-.94822.5259-.42301.9597-.8208 1.0189-.89389.0418-.04398.0669-.11319.0792-.17852.0064-.02911.0064-.04722.0064-.06921 0-.10219-.0405-.18951-.1036-.2626-.0592-.08732-1.8054-2.22826-1.8659-2.28648-.0399-.04398-.0927-.05498-.1507-.05498-.0547.00388-.1042.02588-.1486.0621-.0612.0511-.6276.71472-1.0659 1.30526-.327.44501-.5471.84279-.5825.89324-.038.06921-.0624.16429-.0624.24838 0 .04398.0057.07632.0109.11643.0232.09508.2085.57307.4808 1.04718z"/><path d="m43.9604 5.787c0 .022 0 .04011.0046.06921.0115.06598.0405.13519.0817.17852.0489.07309.4892.47088 1.0208.89389.5793.46312 1.2191.91524 1.2699.94823.0579.0401.1236.06209.197.05821.0753-.00712.1461-.02523.2002-.07309.0791-.06597.4318-.51098.7131-1.00644.2678-.47411.457-.9521.4808-1.04653.0052-.04011.0129-.07309.0129-.11643 0-.08409-.0238-.17917-.0702-.24838-.0309-.05109-.2504-.44823-.5831-.89324-.4319-.59054-1.0015-1.25416-1.0633-1.30526-.038-.03622-.0914-.05822-.1474-.0621-.0592 0-.1146.011-.1519.05498-.0637.05822-1.808 2.19916-1.8672 2.28648-.056.07244-.0979.15976-.0979.26195z"/><path d="m5.43625 51.3616h2.04454l-3.62153 4.2238 3.93059 4.5408h-2.13963l-3.78795-4.4457v4.4457h-1.86227v-8.7646h1.86227v4.2555z"/><path d="m14.7238 60.1262-.3724-1.2204h-.0634c-.4227.5336-.8479.8981-1.2759 1.0936-.4279.1902-.9773.2853-1.6483.2853-.8611 0-1.5347-.2325-2.02074-.6974-.48075-.4649-.72113-1.1226-.72113-1.9732 0-.9034.33547-1.5849 1.00642-2.0445.67095-.4597 1.69325-.7106 3.06685-.7529l1.5135-.0475v-.4676c0-.56-.132-.9773-.3962-1.2521-.2589-.28-.663-.42-1.2124-.42-.4491 0-.8797.0661-1.2917.1982-.4121.132-.8084.2879-1.1887.4675l-.6023-1.3313c.47548-.2483.9959-.4359 1.5611-.5627.5653-.132 1.0989-.1981 1.6008-.1981 1.1147 0 1.9547.243 2.52.7291.5706.486.8559 1.2494.8559 2.2902v5.9038zm-2.7736-1.2679c.6763 0 1.2178-.1876 1.6246-.5627.4121-.3804.6181-.9113.6181-1.5928v-.7608l-1.1253.0476c-.877.0317-1.5162.1796-1.9177.4437-.3963.2589-.5944.6578-.5944 1.1966 0 .391.1162.6948.3487.9114.2325.2113.5811.317 1.046.317z"/><path d="m20.2948 51.3616v3.2015c0 .8982.4649 1.3472 1.3947 1.3472.4491 0 .8876-.0607 1.3155-.1822.4279-.1268.8876-.3276 1.3789-.6023v-3.7642h1.8623v8.7646h-1.8623v-3.7166c-.5125.3169-1.0091.552-1.4898.7053-.4755.1479-.9959.2218-1.5612.2218-.9139 0-1.6271-.2351-2.1396-.7052-.5125-.4755-.7687-1.1385-.7687-1.9891v-3.2808z"/><path d="m32.7364 60.2847c-1.363 0-2.4302-.3963-3.2015-1.1887-.7661-.7977-1.1491-1.894-1.1491-3.2887 0-1.4317.3566-2.557 1.0698-3.3759.7132-.8188 1.6932-1.2283 2.94-1.2283 1.157 0 2.071.3513 2.7419 1.054.671.7026 1.0064 1.6694 1.0064 2.9004v1.0064h-5.8404c.0265.8506.2563 1.5057.6895 1.9653.4332.4543 1.0434.6815 1.8306.6815.5177 0 .9984-.0475 1.4422-.1426.4491-.1004.9298-.2642 1.4423-.4914v1.5136c-.4543.2166-.914.3698-1.3789.4597-.4649.0898-.9958.1347-1.5928.1347zm-.3408-7.671c-.5917 0-1.0671.1875-1.4264.5626-.354.3751-.5653.9219-.634 1.6404h3.9782c-.0106-.7237-.1849-1.2705-.5231-1.6404-.3381-.3751-.803-.5626-1.3947-.5626z"/><path d="m41.7942 60.2847c-1.3261 0-2.3351-.3857-3.0272-1.157-.6868-.7766-1.0302-1.8887-1.0302-3.3363 0-1.4739.3592-2.6071 1.0777-3.3996.7238-.7924 1.7672-1.1887 3.1302-1.1887.9246 0 1.7566.1717 2.4963.5151l-.5627 1.4978c-.7872-.3065-1.437-.4597-1.9494-.4597-1.5163 0-2.2744 1.0065-2.2744 3.0193 0 .9826.1876 1.7223.5627 2.2189.3804.4913.9351.737 1.6641.737.8295 0 1.614-.2061 2.3536-.6182v1.6246c-.3328.1955-.6894.3355-1.0698.42-.3751.0845-.8321.1268-1.3709.1268z"/><path d="m52.8806 51.3616v1.4581h-2.8528v7.3065h-1.8702v-7.3065h-2.8529v-1.4581z"/><path d="m62.1761 53.6043c0 1.0354-.6049 1.6615-1.8147 1.8781v.0634c.6763.0792 1.194.2932 1.5532.6419.3593.3487.5389.8004.5389 1.3551 0 .8294-.317 1.4687-.9509 1.9177-.6287.4438-1.5453.6657-2.7499.6657h-4.1841v-8.7646h4.1683c2.2928 0 3.4392.7476 3.4392 2.2427zm-1.6324 3.8275c0-.4226-.1638-.7211-.4913-.8954-.3276-.1797-.8189-.2695-1.474-.2695h-2.1476v2.4804h2.1951c1.2785 0 1.9178-.4385 1.9178-1.3155zm-.2298-3.669c0-.3487-.1374-.5997-.4121-.7529-.2694-.1585-.6736-.2377-1.2125-.2377h-2.2585v2.1079h1.9812c.6234 0 1.0962-.0792 1.4185-.2377.3222-.1638.4834-.457.4834-.8796z"/><path d="m68.2067 60.2847c-1.363 0-2.4302-.3963-3.2015-1.1887-.766-.7977-1.149-1.894-1.149-3.2887 0-1.4317.3566-2.557 1.0698-3.3759.7132-.8188 1.6932-1.2283 2.94-1.2283 1.157 0 2.0709.3513 2.7419 1.054.6709.7026 1.0064 1.6694 1.0064 2.9004v1.0064h-5.8404c.0264.8506.2562 1.5057.6894 1.9653.4332.4543 1.0434.6815 1.8306.6815.5177 0 .9985-.0475 1.4423-.1426.449-.1004.9298-.2642 1.4423-.4914v1.5136c-.4544.2166-.914.3698-1.3789.4597-.4649.0898-.9959.1347-1.5929.1347zm-.3407-7.671c-.5917 0-1.0672.1875-1.4264.5626-.354.3751-.5653.9219-.634 1.6404h3.9781c-.0105-.7237-.1849-1.2705-.523-1.6404-.3381-.3751-.803-.5626-1.3947-.5626z"/><path d="m75.5924 51.3616v3.5185h4.1287v-3.5185h1.8623v8.7646h-1.8623v-3.78h-4.1287v3.78h-1.8622v-8.7646z"/><path d="m86.1163 51.3616v3.5185h4.1287v-3.5185h1.8622v8.7646h-1.8622v-3.78h-4.1287v3.78h-1.8623v-8.7646z"/><path d="m96.6401 54.8643h1.7751c1.2257 0 2.1318.2113 2.7178.6339.587.4227.88 1.0566.88 1.9019 0 .9034-.306 1.5849-.919 2.0446-.608.4543-1.5007.6815-2.6788.6815h-3.6374v-8.7646h1.8623zm3.5269 2.5834c0-.4385-.164-.7449-.4918-.9193-.3223-.1743-.7872-.2615-1.3947-.2615h-1.6404v2.4804h1.4026c.7502 0 1.2917-.1056 1.6246-.317.3327-.2113.4997-.5388.4997-.9826zm5.095 2.6785h-1.87v-8.7646h1.87z"/><path d="m111.76 60.2847c-1.363 0-2.43-.3963-3.201-1.1887-.766-.7977-1.149-1.894-1.149-3.2887 0-1.4317.356-2.557 1.069-3.3759.714-.8188 1.694-1.2283 2.94-1.2283 1.157 0 2.071.3513 2.742 1.054.671.7026 1.007 1.6694 1.007 2.9004v1.0064h-5.841c.027.8506.257 1.5057.69 1.9653.433.4543 1.043.6815 1.83.6815.518 0 .999-.0475 1.443-.1426.449-.1004.929-.2642 1.442-.4914v1.5136c-.454.2166-.914.3698-1.379.4597-.465.0898-.996.1347-1.593.1347zm-.341-7.671c-.591 0-1.067.1875-1.426.5626-.354.3751-.565.9219-.634 1.6404h3.978c-.01-.7237-.185-1.2705-.523-1.6404-.338-.3751-.803-.5626-1.395-.5626z"/><path d="m129.273 55.7281c0 1.4317-.367 2.549-1.101 3.352-.734.8031-1.757 1.2046-3.067 1.2046-.819 0-1.543-.1849-2.171-.5547-.629-.3699-1.112-.9008-1.45-1.5929-.339-.6921-.508-1.4951-.508-2.409 0-1.4212.365-2.5306 1.094-3.3284.729-.7977 1.757-1.1966 3.083-1.1966 1.268 0 2.271.4095 3.011 1.2283.74.8136 1.109 1.9125 1.109 3.2967zm-6.379 0c0 2.0234.748 3.0351 2.243 3.0351 1.479 0 2.219-1.0117 2.219-3.0351 0-2.0023-.745-3.0035-2.235-3.0035-.782 0-1.35.2589-1.704.7766-.348.5178-.523 1.2601-.523 2.2269z"/><path d="m136.857 51.3616h2.045l-3.622 4.2238 3.931 4.5408h-2.14l-3.788-4.4457v4.4457h-1.862v-8.7646h1.862v4.2555z"/><path d="m142.523 51.3616v3.5185h4.129v-3.5185h1.862v8.7646h-1.862v-3.78h-4.129v3.78h-1.862v-8.7646z"/><path d="m156.669 60.1262-.373-1.2204h-.063c-.423.5336-.848.8981-1.276 1.0936-.428.1902-.977.2853-1.648.2853-.861 0-1.535-.2325-2.021-.6974-.481-.4649-.721-1.1226-.721-1.9732 0-.9034.335-1.5849 1.006-2.0445.671-.4597 1.693-.7106 3.067-.7529l1.514-.0475v-.4676c0-.56-.133-.9773-.397-1.2521-.259-.28-.663-.42-1.212-.42-.449 0-.88.0661-1.292.1982-.412.132-.808.2879-1.189.4675l-.602-1.3313c.476-.2483.996-.4359 1.561-.5627.566-.132 1.099-.1981 1.601-.1981 1.115 0 1.955.243 2.52.7291.571.486.856 1.2494.856 2.2902v5.9038zm-2.774-1.2679c.676 0 1.218-.1876 1.625-.5627.412-.3804.618-.9113.618-1.5928v-.7608l-1.126.0476c-.877.0317-1.516.1796-1.917.4437-.397.2589-.595.6578-.595 1.1966 0 .391.117.6948.349.9114.232.2113.581.317 1.046.317z"/></g></svg>
